<svg xmlns="http://www.w3.org/2000/svg" viewBox="0 0 1600 950" preserveAspectRatio="xMidYMid slice">
  <g stroke="#6b4a28" fill="none" stroke-linecap="round" stroke-linejoin="round" opacity="0.13">

    <!-- ═══════════════════════════════════════════
         LEFT PALM TREE
    ═══════════════════════════════════════════ -->
    <!-- Trunk (gently curved, widens at base) -->
    <path stroke-width="3.5" d="M 145,950 C 142,880 136,810 130,745 C 125,685 128,630 122,575 C 117,525 120,475 115,430 C 111,392 114,360 110,328 C 107,302 110,278 106,255"/>
    <!-- Trunk segment marks (sketch texture) -->
    <path stroke-width="1"   d="M 138,920 C 130,917 144,915 138,918"/>
    <path stroke-width="1"   d="M 134,880 C 126,877 140,875 134,878"/>
    <path stroke-width="1"   d="M 130,840 C 122,837 136,835 130,838"/>
    <path stroke-width="1"   d="M 127,800 C 119,797 133,795 127,798"/>
    <path stroke-width="1"   d="M 124,760 C 116,757 130,755 124,758"/>
    <path stroke-width="1"   d="M 122,720 C 114,717 128,715 122,718"/>
    <path stroke-width="1"   d="M 120,680 C 112,677 126,675 120,678"/>
    <path stroke-width="1"   d="M 118,640 C 110,637 124,635 118,638"/>
    <path stroke-width="1"   d="M 116,600 C 108,597 122,595 116,598"/>
    <path stroke-width="1"   d="M 114,560 C 106,557 120,555 114,558"/>
    <path stroke-width="1"   d="M 113,520 C 105,517 119,515 113,518"/>
    <path stroke-width="1"   d="M 112,480 C 104,477 118,475 112,478"/>
    <path stroke-width="1"   d="M 111,440 C 103,437 117,435 111,438"/>
    <path stroke-width="1"   d="M 110,400 C 102,397 116,395 110,398"/>
    <path stroke-width="1"   d="M 109,360 C 101,357 115,355 109,358"/>
    <path stroke-width="1"   d="M 108,318 C 100,315 114,313 108,316"/>
    <path stroke-width="1"   d="M 107,280 C 99,277 113,275 107,278"/>

    <!-- Frond 1 — sweeps upper-left -->
    <path stroke-width="1.8" d="M 106,255 C 72,228 35,210 -25,194"/>
    <path stroke-width="0.9" d="M 75,237 L 68,226 M 48,220 L 41,209 M 18,208 L 12,197 M -12,200 L -18,190"/>
    <path stroke-width="0.9" d="M 75,237 L 80,227 M 48,220 L 53,210 M 18,208 L 22,198"/>
    <!-- Frond 2 — left -->
    <path stroke-width="1.8" d="M 106,255 C 62,248 18,245 -45,240"/>
    <path stroke-width="0.9" d="M 62,253 L 57,244 M 25,249 L 20,240 M -15,245 L -20,236"/>
    <path stroke-width="0.9" d="M 62,253 L 64,244 M 25,249 L 27,240"/>
    <!-- Frond 3 — lower-left -->
    <path stroke-width="1.8" d="M 106,255 C 72,270 35,285 -20,298"/>
    <path stroke-width="0.9" d="M 68,265 L 62,275 M 35,281 L 30,290 M -2,292 L -7,302"/>
    <path stroke-width="0.9" d="M 68,265 L 74,256 M 35,281 L 40,272"/>
    <!-- Frond 4 — upper-right -->
    <path stroke-width="1.8" d="M 106,255 C 148,228 195,210 258,196"/>
    <path stroke-width="0.9" d="M 148,240 L 155,229 M 180,222 L 186,211 M 218,210 L 224,199"/>
    <path stroke-width="0.9" d="M 148,240 L 143,230 M 180,222 L 175,212"/>
    <!-- Frond 5 — right -->
    <path stroke-width="1.8" d="M 106,255 C 155,250 208,248 275,244"/>
    <path stroke-width="0.9" d="M 158,253 L 163,244 M 210,250 L 215,241"/>
    <path stroke-width="0.9" d="M 158,253 L 154,244 M 210,250 L 205,241"/>
    <!-- Frond 6 — lower-right -->
    <path stroke-width="1.8" d="M 106,255 C 148,272 192,288 252,304"/>
    <path stroke-width="0.9" d="M 148,265 L 155,274 M 195,282 L 202,291"/>
    <path stroke-width="0.9" d="M 148,265 L 142,256 M 195,282 L 189,273"/>
    <!-- Frond 7 — straight up -->
    <path stroke-width="1.8" d="M 106,255 C 102,215 98,175 94,138"/>
    <path stroke-width="0.9" d="M 100,232 L 92,228 M 97,205 L 89,201 M 95,178 L 87,174"/>
    <path stroke-width="0.9" d="M 100,232 L 107,228 M 97,205 L 104,201"/>
    <!-- Coconuts cluster -->
    <circle stroke-width="1.4" cx="106" cy="265" r="7"/>
    <circle stroke-width="1.4" cx="115" cy="270" r="6"/>
    <circle stroke-width="1.4" cx="98"  cy="272" r="6"/>
    <circle stroke-width="1.4" cx="108" cy="278" r="5"/>

    <!-- ═══════════════════════════════════════════
         RIGHT PALM TREE
    ═══════════════════════════════════════════ -->
    <path stroke-width="3.5" d="M 1455,950 C 1459,880 1466,810 1472,745 C 1477,685 1474,630 1480,575 C 1485,525 1482,475 1487,430 C 1491,392 1488,360 1492,328 C 1495,302 1492,278 1496,255"/>
    <!-- Trunk segments -->
    <path stroke-width="1" d="M 1464,920 C 1458,917 1470,915 1464,918"/>
    <path stroke-width="1" d="M 1468,880 C 1462,877 1474,875 1468,878"/>
    <path stroke-width="1" d="M 1472,840 C 1466,837 1478,835 1472,838"/>
    <path stroke-width="1" d="M 1475,800 C 1469,797 1481,795 1475,798"/>
    <path stroke-width="1" d="M 1478,760 C 1472,757 1484,755 1478,758"/>
    <path stroke-width="1" d="M 1480,720 C 1474,717 1486,715 1480,718"/>
    <path stroke-width="1" d="M 1482,680 C 1476,677 1488,675 1482,678"/>
    <path stroke-width="1" d="M 1484,640 C 1478,637 1490,635 1484,638"/>
    <path stroke-width="1" d="M 1486,600 C 1480,597 1492,595 1486,598"/>
    <path stroke-width="1" d="M 1487,560 C 1481,557 1493,555 1487,558"/>
    <path stroke-width="1" d="M 1488,520 C 1482,517 1494,515 1488,518"/>
    <path stroke-width="1" d="M 1489,480 C 1483,477 1495,475 1489,478"/>
    <path stroke-width="1" d="M 1490,440 C 1484,437 1496,435 1490,438"/>
    <path stroke-width="1" d="M 1491,400 C 1485,397 1497,395 1491,398"/>
    <path stroke-width="1" d="M 1492,360 C 1486,357 1498,355 1492,358"/>
    <path stroke-width="1" d="M 1493,318 C 1487,315 1499,313 1493,316"/>
    <path stroke-width="1" d="M 1494,280 C 1488,277 1500,275 1494,278"/>
    <!-- Fronds right tree (mirror of left) -->
    <path stroke-width="1.8" d="M 1496,255 C 1530,228 1567,210 1627,194"/>
    <path stroke-width="0.9" d="M 1527,237 L 1534,226 M 1554,220 L 1561,209 M 1582,208 L 1588,197"/>
    <path stroke-width="0.9" d="M 1527,237 L 1522,227 M 1554,220 L 1549,210"/>
    <path stroke-width="1.8" d="M 1496,255 C 1542,248 1588,245 1648,240"/>
    <path stroke-width="0.9" d="M 1544,253 L 1549,244 M 1582,249 L 1586,240"/>
    <path stroke-width="0.9" d="M 1544,253 L 1540,244 M 1582,249 L 1577,240"/>
    <path stroke-width="1.8" d="M 1496,255 C 1530,270 1567,285 1622,298"/>
    <path stroke-width="0.9" d="M 1534,265 L 1540,275 M 1568,281 L 1574,290"/>
    <path stroke-width="1.8" d="M 1496,255 C 1452,228 1408,210 1348,196"/>
    <path stroke-width="0.9" d="M 1452,240 L 1444,229 M 1422,222 L 1414,211 M 1388,210 L 1381,199"/>
    <path stroke-width="0.9" d="M 1452,240 L 1457,230 M 1422,222 L 1427,212"/>
    <path stroke-width="1.8" d="M 1496,255 C 1448,250 1398,248 1332,244"/>
    <path stroke-width="0.9" d="M 1446,253 L 1440,244 M 1396,250 L 1389,241"/>
    <path stroke-width="1.8" d="M 1496,255 C 1452,272 1408,288 1352,304"/>
    <path stroke-width="0.9" d="M 1453,265 L 1447,275 M 1408,282 L 1402,291"/>
    <path stroke-width="1.8" d="M 1496,255 C 1500,215 1504,175 1508,138"/>
    <path stroke-width="0.9" d="M 1502,232 L 1510,228 M 1505,205 L 1513,201 M 1507,178 L 1515,174"/>
    <!-- Coconuts -->
    <circle stroke-width="1.4" cx="1496" cy="265" r="7"/>
    <circle stroke-width="1.4" cx="1488" cy="270" r="6"/>
    <circle stroke-width="1.4" cx="1504" cy="272" r="6"/>
    <circle stroke-width="1.4" cx="1494" cy="279" r="5"/>

    <!-- ═══════════════════════════════════════════
         CENTRE BACKGROUND PALM (smaller, behind)
    ═══════════════════════════════════════════ -->
    <path stroke-width="2.5" d="M 790,950 C 787,895 782,840 779,790 C 776,742 779,698 776,655 C 773,615 776,578 773,542 C 770,512 773,485 770,460"/>
    <path stroke-width="0.8" d="M 783,920 C 777,918 788,916 783,919"/>
    <path stroke-width="0.8" d="M 780,880 C 774,878 785,876 780,879"/>
    <path stroke-width="0.8" d="M 778,840 C 772,838 783,836 778,839"/>
    <path stroke-width="0.8" d="M 776,800 C 770,798 781,796 776,799"/>
    <path stroke-width="0.8" d="M 774,760 C 768,758 779,756 774,759"/>
    <path stroke-width="0.8" d="M 773,720 C 767,718 778,716 773,719"/>
    <path stroke-width="0.8" d="M 772,680 C 766,678 777,676 772,679"/>
    <path stroke-width="0.8" d="M 771,640 C 765,638 776,636 771,639"/>
    <path stroke-width="0.8" d="M 771,600 C 765,598 776,596 771,599"/>
    <path stroke-width="0.8" d="M 770,565 C 764,563 775,561 770,564"/>
    <path stroke-width="0.8" d="M 770,528 C 764,526 775,524 770,527"/>
    <path stroke-width="0.8" d="M 770,494 C 764,492 775,490 770,493"/>
    <!-- Centre fronds -->
    <path stroke-width="1.4" d="M 770,460 C 730,438 688,425 640,415"/>
    <path stroke-width="0.8" d="M 728,446 L 722,436 M 695,432 L 688,422 M 658,422 L 651,412"/>
    <path stroke-width="1.4" d="M 770,460 C 810,438 852,425 900,415"/>
    <path stroke-width="0.8" d="M 812,446 L 818,436 M 845,432 L 852,422 M 878,422 L 885,412"/>
    <path stroke-width="1.4" d="M 770,460 C 742,448 712,442 672,438"/>
    <path stroke-width="1.4" d="M 770,460 C 798,448 828,442 868,438"/>
    <path stroke-width="1.4" d="M 770,460 C 748,474 722,488 688,500"/>
    <path stroke-width="1.4" d="M 770,460 C 792,474 818,488 852,500"/>
    <path stroke-width="1.4" d="M 770,460 C 766,422 762,385 758,350"/>
    <!-- Coconuts -->
    <circle stroke-width="1.2" cx="770" cy="468" r="6"/>
    <circle stroke-width="1.2" cx="778" cy="474" r="5"/>
    <circle stroke-width="1.2" cx="762" cy="475" r="5"/>

    <!-- ═══════════════════════════════════════════
         SURFBOARD 1 — leaning left palm
    ═══════════════════════════════════════════ -->
    <path stroke-width="1.8" d="M 195,950 C 196,878 200,806 202,748 C 204,706 203,672 200,648 C 197,630 193,620 190,612 C 187,618 184,630 182,650 C 180,678 179,714 181,756 C 184,818 188,890 190,950"/>
    <!-- Nose curve -->
    <path stroke-width="1.4" d="M 190,612 C 191,605 194,600 196,605 C 197,612 194,618 190,622"/>
    <!-- Board rails (edge lines) -->
    <path stroke-width="0.9" d="M 195,950 C 194,890 191,820 189,760 C 187,720 186,686 188,660"/>
    <!-- Deck stripe -->
    <path stroke-width="1.2" d="M 187,750 C 191,746 196,748 193,754 C 190,758 186,756 187,750"/>
    <path stroke-width="0.9" d="M 187,720 C 191,716 196,718 193,724"/>
    <!-- Fin -->
    <path stroke-width="1.4" d="M 188,920 C 182,898 180,880 184,868 C 186,862 190,864 191,873 C 192,886 191,908 188,920"/>

    <!-- ═══════════════════════════════════════════
         SURFBOARD 2 — leaning right palm
    ═══════════════════════════════════════════ -->
    <path stroke-width="1.8" d="M 1405,950 C 1404,878 1400,806 1398,748 C 1396,706 1397,672 1400,648 C 1403,630 1407,620 1410,612 C 1413,618 1416,630 1418,650 C 1420,678 1421,714 1419,756 C 1416,818 1412,890 1410,950"/>
    <path stroke-width="1.4" d="M 1410,612 C 1409,605 1406,600 1404,605 C 1403,612 1406,618 1410,622"/>
    <path stroke-width="0.9" d="M 1405,950 C 1406,890 1409,820 1411,760 C 1413,720 1414,686 1412,660"/>
    <path stroke-width="1.2" d="M 1413,750 C 1409,746 1404,748 1407,754 C 1410,758 1414,756 1413,750"/>
    <path stroke-width="0.9" d="M 1413,720 C 1409,716 1404,718 1407,724"/>
    <path stroke-width="1.4" d="M 1412,920 C 1418,898 1420,880 1416,868 C 1414,862 1410,864 1409,873 C 1408,886 1409,908 1412,920"/>

    <!-- ═══════════════════════════════════════════
         SURFBOARD 3 — lying on sand, centre
    ═══════════════════════════════════════════ -->
    <path stroke-width="1.8" d="M 640,898 C 660,878 690,868 740,864 C 790,860 840,860 880,862 C 920,864 950,870 965,882 C 978,892 975,905 960,912 C 940,920 900,922 850,922 C 800,922 750,920 710,916 C 672,912 648,908 640,898 Z"/>
    <!-- Board centerline -->
    <path stroke-width="0.9" d="M 645,900 C 700,888 780,882 860,882 C 920,882 950,888 960,896"/>
    <!-- Board stripe detail -->
    <path stroke-width="1.2" d="M 720,878 C 760,874 820,874 860,878"/>
    <!-- Fin -->
    <path stroke-width="1.4" d="M 930,916 C 944,896 950,878 942,868 C 938,862 930,866 927,876 C 924,888 926,906 930,916"/>

    <!-- ═══════════════════════════════════════════
         FOURTH SURFBOARD — propped, left of centre
    ═══════════════════════════════════════════ -->
    <path stroke-width="1.6" d="M 350,950 C 351,892 354,834 356,786 C 357,752 356,724 353,702 C 350,686 347,677 344,670 C 341,676 339,686 338,704 C 336,728 336,758 338,796 C 340,848 344,906 346,950"/>
    <path stroke-width="1.2" d="M 344,670 C 344,664 346,660 348,664 C 349,670 347,676 344,680"/>
    <path stroke-width="0.9" d="M 344,760 C 348,756 352,758 349,764"/>
    <path stroke-width="1.2" d="M 340,920 C 335,902 333,886 336,876 C 338,870 342,872 343,880 C 344,892 343,910 340,920"/>

    <!-- ═══════════════════════════════════════════
         OCEAN WAVES
    ═══════════════════════════════════════════ -->
    <!-- Beach horizon -->
    <path stroke-width="1.2" stroke-dasharray="12,5" d="M -50,800 C 100,795 300,797 500,793 C 700,789 900,791 1100,788 C 1300,785 1500,787 1650,784"/>
    <!-- Wave 1 (main break) -->
    <path stroke-width="2" d="M -50,838 C 40,822 100,842 200,828 C 300,814 360,836 460,820 C 560,806 620,828 720,814 C 820,800 880,822 980,808 C 1080,794 1140,816 1240,802 C 1340,788 1400,810 1500,796 C 1570,785 1610,802 1650,796"/>
    <!-- Wave crest foam -->
    <path stroke-width="1"   d="M 80,828 C 92,824 108,826 100,832 C 90,836 78,834 80,828"/>
    <path stroke-width="1"   d="M 340,820 C 352,816 368,818 360,824 C 350,828 338,826 340,820"/>
    <path stroke-width="1"   d="M 600,812 C 612,808 628,810 620,816 C 610,820 598,818 600,812"/>
    <path stroke-width="1"   d="M 860,804 C 872,800 888,802 880,808 C 870,812 858,810 860,804"/>
    <path stroke-width="1"   d="M 1120,796 C 1132,792 1148,794 1140,800 C 1130,804 1118,802 1120,796"/>
    <path stroke-width="1"   d="M 1380,790 C 1392,786 1408,788 1400,794 C 1390,798 1378,796 1380,790"/>
    <!-- Wave 2 -->
    <path stroke-width="1.4" d="M -50,862 C 60,846 140,868 280,850 C 420,832 480,856 620,838 C 760,820 820,844 960,826 C 1100,808 1160,832 1300,814 C 1440,796 1500,820 1650,808"/>
    <!-- Wave 3 (foam on shore) -->
    <path stroke-width="1"   d="M -50,888 C 80,872 180,892 340,876 C 500,860 580,882 740,866 C 900,850 980,872 1140,856 C 1300,840 1380,862 1540,848 C 1600,842 1630,855 1650,850"/>
    <!-- Small wave details -->
    <path stroke-width="0.8" d="M 160,866 C 172,862 188,864 180,870"/>
    <path stroke-width="0.8" d="M 500,854 C 512,850 528,852 520,858"/>
    <path stroke-width="0.8" d="M 820,845 C 832,841 848,843 840,849"/>
    <path stroke-width="0.8" d="M 1160,836 C 1172,832 1188,834 1180,840"/>
    <path stroke-width="0.8" d="M 1480,828 C 1492,824 1508,826 1500,832"/>

    <!-- ═══════════════════════════════════════════
         SUN (upper right)
    ═══════════════════════════════════════════ -->
    <circle stroke-width="2" cx="1360" cy="95" r="50"/>
    <!-- Rays -->
    <path stroke-width="1.4" d="M 1360,35 C 1358,28 1362,22 1360,15"/>
    <path stroke-width="1.4" d="M 1360,155 C 1362,162 1358,168 1360,175"/>
    <path stroke-width="1.4" d="M 1300,95 C 1293,93 1287,97 1280,95"/>
    <path stroke-width="1.4" d="M 1420,95 C 1427,93 1433,97 1440,95"/>
    <path stroke-width="1.4" d="M 1318,53 L 1306,41"/>
    <path stroke-width="1.4" d="M 1402,137 L 1414,149"/>
    <path stroke-width="1.4" d="M 1402,53 L 1414,41"/>
    <path stroke-width="1.4" d="M 1318,137 L 1306,149"/>
    <!-- Diagonal rays -->
    <path stroke-width="1"   d="M 1296,58 L 1286,48"/>
    <path stroke-width="1"   d="M 1424,132 L 1434,142"/>
    <path stroke-width="1"   d="M 1282,120 L 1272,128"/>
    <path stroke-width="1"   d="M 1438,70 L 1448,62"/>
    <!-- Slight sketch wobble on rays -->
    <path stroke-width="0.8" d="M 1360,35 C 1356,28 1364,22 1360,15"/>
    <!-- Shine marks inside sun -->
    <path stroke-width="0.8" d="M 1335,75 C 1330,70 1335,65 1342,68"/>
    <path stroke-width="0.8" d="M 1345,68 C 1342,62 1348,59 1353,63"/>

    <!-- ═══════════════════════════════════════════
         SMALL BEACH ELEMENTS
    ═══════════════════════════════════════════ -->
    <!-- Starfish left -->
    <g stroke-width="1.2" transform="translate(420,815)">
      <line x1="0" y1="-14" x2="0" y2="14"/>
      <line x1="-13" y1="-4" x2="13" y2="4"/>
      <line x1="-13" y1="4" x2="13" y2="-4"/>
      <line x1="-8" y1="-11" x2="8" y2="11"/>
      <line x1="8" y1="-11" x2="-8" y2="11"/>
      <circle stroke-width="1" cx="0" cy="0" r="4"/>
    </g>
    <!-- Starfish right -->
    <g stroke-width="1" transform="translate(1180,810)">
      <line x1="0" y1="-12" x2="0" y2="12"/>
      <line x1="-11" y1="-3" x2="11" y2="3"/>
      <line x1="-11" y1="3" x2="11" y2="-3"/>
      <line x1="-7" y1="-9" x2="7" y2="9"/>
      <line x1="7" y1="-9" x2="-7" y2="9"/>
      <circle stroke-width="0.8" cx="0" cy="0" r="3"/>
    </g>
    <!-- Shell left -->
    <path stroke-width="1.2" d="M 540,808 C 537,800 540,792 547,789 C 554,786 562,790 561,798 C 560,806 552,812 544,810 C 539,808 537,803 540,798"/>
    <path stroke-width="0.9" d="M 540,808 C 545,796 554,791 560,797"/>
    <path stroke-width="0.8" d="M 544,806 C 548,798 554,793 558,797"/>
    <path stroke-width="0.8" d="M 547,809 C 550,801 555,795 559,799"/>
    <!-- Shell right -->
    <path stroke-width="1.2" d="M 1060,804 C 1057,796 1060,788 1067,785 C 1074,782 1082,786 1081,794 C 1080,802 1072,808 1064,806 C 1059,804 1057,799 1060,794"/>
    <path stroke-width="0.9" d="M 1060,804 C 1065,792 1074,787 1080,793"/>
    <path stroke-width="0.8" d="M 1064,802 C 1068,794 1074,789 1078,793"/>
    <!-- Seagulls -->
    <path stroke-width="1.2" d="M 380,165 C 386,159 396,159 402,165"/>
    <path stroke-width="1.2" d="M 402,163 C 408,157 418,157 424,163"/>
    <path stroke-width="1.2" d="M 610,210 C 616,204 626,204 632,210"/>
    <path stroke-width="1"   d="M 650,195 C 655,190 663,190 668,195"/>
    <path stroke-width="1.2" d="M 880,130 C 886,124 896,124 902,130"/>
    <path stroke-width="1.2" d="M 903,128 C 909,122 919,122 925,128"/>
    <path stroke-width="1"   d="M 1100,175 C 1105,170 1113,170 1118,175"/>
    <!-- Flip flops -->
    <ellipse stroke-width="1.2" cx="490" cy="826" rx="22" ry="11" transform="rotate(-18,490,826)"/>
    <path stroke-width="1"   d="M 484,820 C 491,816 499,819 495,826"/>
    <ellipse stroke-width="1.2" cx="520" cy="832" rx="22" ry="11" transform="rotate(12,520,832)"/>
    <path stroke-width="1"   d="M 516,827 C 523,823 531,826 527,833"/>
    <!-- Pail and shovel -->
    <path stroke-width="1.2" d="M 1280,840 C 1278,815 1284,812 1290,812 C 1296,812 1302,815 1300,840 Z"/>
    <path stroke-width="1"   d="M 1280,840 C 1280,844 1300,844 1300,840"/>
    <path stroke-width="1"   d="M 1283,815 C 1290,810 1297,815"/>
    <path stroke-width="1.2" d="M 1315,840 L 1315,808 C 1315,804 1318,800 1321,800 L 1321,796 C 1315,796 1310,798 1309,804 L 1309,840"/>
    <path stroke-width="1"   d="M 1312,840 L 1324,840"/>
    <!-- Tropical leaves on ground -->
    <path stroke-width="1"   d="M 240,820 C 260,808 280,810 285,820 C 275,815 258,815 240,820"/>
    <path stroke-width="1"   d="M 1320,818 C 1340,806 1360,808 1365,818 C 1355,813 1338,813 1320,818"/>
    <!-- Rope/vine texture between palms hint -->
    <path stroke-width="0.8" stroke-dasharray="4,6" d="M 260,310 C 400,340 550,330 690,348"/>
    <path stroke-width="0.8" stroke-dasharray="4,6" d="M 910,345 C 1060,328 1220,338 1360,308"/>

  </g>
</svg>
