<svg xmlns="http://www.w3.org/2000/svg" viewBox="0 0 1010 505" preserveAspectRatio="xMidYMid slice">
  <!-- Ocean -->
  <rect width="1010" height="505" fill="none"/>

  <!-- Grid lines (latitude/longitude) -->
  <g stroke="rgba(168,216,240,0.12)" stroke-width="0.6" fill="none">
    <!-- Longitude lines every 30° -->
    <line x1="84"  y1="0" x2="84"  y2="505"/>
    <line x1="168" y1="0" x2="168" y2="505"/>
    <line x1="252" y1="0" x2="252" y2="505"/>
    <line x1="337" y1="0" x2="337" y2="505"/>
    <line x1="421" y1="0" x2="421" y2="505"/>
    <line x1="505" y1="0" x2="505" y2="505"/>
    <line x1="589" y1="0" x2="589" y2="505"/>
    <line x1="674" y1="0" x2="674" y2="505"/>
    <line x1="758" y1="0" x2="758" y2="505"/>
    <line x1="842" y1="0" x2="842" y2="505"/>
    <line x1="926" y1="0" x2="926" y2="505"/>
    <!-- Latitude lines every 30° -->
    <line x1="0" y1="84"  x2="1010" y2="84"/>
    <line x1="0" y1="168" x2="1010" y2="168"/>
    <line x1="0" y1="252" x2="1010" y2="252"/>
    <line x1="0" y1="337" x2="1010" y2="337"/>
    <line x1="0" y1="421" x2="1010" y2="421"/>
    <!-- Equator -->
    <line x1="0" y1="252" x2="1010" y2="252" stroke="rgba(168,216,240,0.22)" stroke-width="1"/>
    <!-- Tropic of Cancer ~23°N -->
    <line x1="0" y1="188" x2="1010" y2="188" stroke="rgba(168,216,240,0.14)" stroke-width="0.8" stroke-dasharray="4,4"/>
    <!-- Tropic of Capricorn ~23°S -->
    <line x1="0" y1="316" x2="1010" y2="316" stroke="rgba(168,216,240,0.14)" stroke-width="0.8" stroke-dasharray="4,4"/>
  </g>

  <!-- ── Continents ───────────────────────────────────────────────────────── -->
  <g fill="rgba(91,184,232,0.22)" stroke="rgba(168,216,240,0.55)" stroke-width="0.8" stroke-linejoin="round">

    <!-- North America -->
    <path d="
      M 22,67 L 42,52 L 59,53 L 80,48 L 120,45
      L 200,42 L 238,47 L 310,48 L 327,56 L 347,109
      L 336,126 L 316,129 L 299,140 L 288,165 L 280,182
      L 275,195 L 263,210 L 255,216 L 249,225
      L 240,220 L 235,215
      L 239,208 L 245,200 L 236,195 L 225,197
      L 213,196 L 199,188 L 185,185 L 177,175 L 177,161
      L 158,118 L 145,105 L 130,98 L 124,92
      L 112,90 L 100,87 L 80,84 L 65,78 L 49,76
      L 36,74 L 22,67 Z
    "/>

    <!-- Greenland -->
    <path d="
      M 310,20 L 360,15 L 395,22 L 405,38
      L 390,55 L 370,62 L 345,65 L 325,58 L 310,45 L 308,30 Z
    "/>

    <!-- Cuba & Caribbean (simplified) -->
    <path d="M 253,216 L 275,212 L 285,218 L 278,224 L 260,222 Z"/>

    <!-- South America -->
    <path d="
      M 245,225 L 255,216 L 263,210 L 275,210
      L 285,218 L 290,222 L 305,220 L 318,222
      L 336,220 L 350,225 L 372,230 L 395,240
      L 406,264 L 406,275 L 403,283
      L 398,296 L 391,313 L 385,330
      L 370,342 L 355,341 L 342,348
      L 330,358 L 325,373 L 322,384 L 318,392
      L 307,398 L 298,390 L 292,375
      L 290,358 L 285,345 L 278,330
      L 272,318 L 268,305 L 268,290
      L 273,274 L 277,264 L 274,253
      L 268,247 L 260,243 L 252,237 L 245,225 Z
    "/>

    <!-- Europe -->
    <path d="
      M 479,147 L 472,138 L 474,130 L 479,124
      L 485,118 L 488,109 L 495,103 L 503,98
      L 499,118 L 502,125 L 510,128 L 519,129
      L 527,124 L 533,115 L 539,108 L 548,100
      L 556,95 L 563,88 L 571,78 L 573,66
      L 576,57 L 585,56 L 591,62 L 588,72
      L 582,80 L 577,90 L 574,101
      L 578,110 L 584,118 L 587,128
      L 582,138 L 578,146 L 574,152
      L 567,155 L 558,158 L 550,155 L 543,148
      L 535,150 L 530,157 L 522,158
      L 512,155 L 504,152 L 495,152 L 485,150 L 479,147 Z
    "/>

    <!-- Scandinavia -->
    <path d="
      M 500,95 L 505,85 L 510,75 L 516,65 L 520,56
      L 527,52 L 533,55 L 538,65 L 534,75
      L 530,85 L 527,95 L 520,100 L 510,100 L 500,95 Z
    "/>

    <!-- UK & Ireland -->
    <path d="
      M 479,124 L 484,118 L 488,110 L 483,105 L 476,108 L 471,118 L 473,126 Z
    "/>
    <path d="M 470,115 L 474,108 L 472,103 L 467,106 L 466,114 Z"/>

    <!-- Africa -->
    <path d="
      M 479,151 L 487,148 L 499,148 L 512,147
      L 522,148 L 533,148 L 545,148 L 560,148
      L 575,150 L 588,152 L 602,158 L 614,162
      L 622,168 L 630,175 L 636,186 L 640,196
      L 644,212 L 644,224 L 640,234 L 634,242
      L 626,248 L 620,256 L 617,266 L 617,278
      L 614,290 L 610,304 L 605,318 L 598,330
      L 590,342 L 583,350 L 575,358 L 566,364
      L 556,368 L 548,364 L 540,356 L 534,346
      L 528,334 L 522,320 L 518,308 L 514,296
      L 510,284 L 509,272 L 509,260 L 511,250
      L 511,240 L 509,230 L 507,220
      L 504,212 L 498,206 L 490,200 L 482,196
      L 476,190 L 469,182 L 465,172 L 467,162 L 479,151 Z
    "/>

    <!-- Madagascar -->
    <path d="M 640,296 L 646,290 L 650,308 L 648,330 L 640,340 L 634,332 L 634,314 Z"/>

    <!-- Middle East / Arabia -->
    <path d="
      M 578,152 L 590,155 L 602,158 L 614,162
      L 622,168 L 628,178 L 632,190 L 635,204
      L 636,218 L 638,228 L 644,224 L 648,214
      L 652,206 L 655,198 L 655,188 L 650,178
      L 645,168 L 640,160 L 632,152 L 622,148 L 610,148 L 600,148 L 590,150 Z
    "/>

    <!-- Asia (Central + East) -->
    <path d="
      M 591,62 L 600,58 L 614,55 L 630,52 L 648,50
      L 668,48 L 694,46 L 720,45 L 754,44
      L 790,44 L 826,45 L 860,46 L 892,48
      L 920,52 L 948,58 L 970,65 L 985,72
      L 990,82 L 988,95 L 982,108 L 975,118
      L 968,128 L 960,138 L 950,148 L 940,156
      L 930,163 L 920,170 L 910,178 L 902,186
      L 896,194 L 890,202 L 882,208 L 872,214
      L 860,218 L 848,220 L 836,218 L 824,214
      L 814,208 L 806,202 L 798,196 L 790,190
      L 780,186 L 770,184 L 758,184 L 746,186
      L 736,190 L 726,196 L 718,204 L 712,212
      L 708,222 L 705,232 L 700,240 L 694,246
      L 685,250 L 676,252 L 668,248 L 660,242
      L 652,234 L 645,224 L 640,214
      L 636,204 L 633,192 L 630,180 L 626,170
      L 620,162 L 612,155 L 604,152 L 596,152
      L 588,152 L 580,150 L 574,152 L 570,155
      L 562,158 L 556,160 L 548,158 L 540,154
      L 534,150 L 530,148 L 524,145
      L 522,135 L 528,124 L 535,116 L 540,108
      L 548,100 L 556,95 L 564,88 L 570,80
      L 574,70 L 574,60 L 577,55 L 585,54 L 591,62 Z
    "/>

    <!-- Indian Subcontinent -->
    <path d="
      M 668,200 L 680,190 L 694,186 L 706,190
      L 716,200 L 724,212 L 728,224 L 726,236
      L 722,248 L 715,258 L 705,266 L 694,270
      L 682,266 L 672,258 L 664,246 L 660,234
      L 658,222 L 660,210 Z
    "/>

    <!-- Sri Lanka -->
    <path d="M 705,272 L 710,270 L 714,278 L 710,283 L 705,280 Z"/>

    <!-- Southeast Asia mainland -->
    <path d="
      M 796,196 L 806,202 L 814,208 L 820,216
      L 822,226 L 820,236 L 816,246 L 810,254
      L 802,260 L 794,264 L 786,266 L 780,260
      L 776,250 L 774,240 L 776,230 L 780,220
      L 784,210 L 790,202 Z
    "/>

    <!-- Malay Peninsula -->
    <path d="
      M 790,260 L 796,264 L 798,276 L 796,288 L 790,294 L 784,288 L 782,276 L 786,265 Z
    "/>

    <!-- Sumatra -->
    <path d="M 770,270 L 796,258 L 810,268 L 806,285 L 790,298 L 770,288 Z"/>

    <!-- Java -->
    <path d="M 790,300 L 830,295 L 850,302 L 844,312 L 812,315 L 790,308 Z"/>

    <!-- Borneo -->
    <path d="M 818,256 L 848,250 L 870,258 L 876,280 L 868,300 L 846,308 L 822,300 L 812,280 L 814,262 Z"/>

    <!-- Philippines -->
    <path d="M 854,200 L 866,195 L 876,202 L 878,215 L 870,225 L 858,224 L 850,215 L 850,205 Z"/>

    <!-- Japan -->
    <path d="
      M 878,120 L 890,115 L 900,118 L 906,126 L 902,136
      L 892,140 L 882,136 L 876,128 Z
    "/>
    <path d="M 888,142 L 898,138 L 906,142 L 910,152 L 906,160 L 896,162 L 886,156 L 884,148 Z"/>

    <!-- Taiwan -->
    <path d="M 862,188 L 868,184 L 874,190 L 872,198 L 865,200 L 860,195 Z"/>

    <!-- Korea -->
    <path d="M 854,150 L 866,145 L 876,150 L 878,162 L 870,168 L 858,165 L 850,158 Z"/>

    <!-- Australia -->
    <path d="
      M 821,286 L 840,280 L 860,276 L 880,274
      L 900,276 L 918,280 L 930,288 L 936,300
      L 940,315 L 940,330 L 936,345 L 929,358
      L 920,368 L 908,374 L 894,376 L 879,374
      L 864,368 L 850,358 L 838,345 L 828,330
      L 820,315 L 816,300 L 818,288 Z
    "/>

    <!-- New Zealand (simplified) -->
    <path d="M 960,378 L 968,370 L 974,378 L 972,392 L 964,396 L 958,388 Z"/>
    <path d="M 956,360 L 963,352 L 970,356 L 968,368 L 961,372 L 954,366 Z"/>

    <!-- Antarctica (simplified strip) -->
    <path d="
      M 0,480 L 100,472 L 200,468 L 300,470 L 400,472
      L 505,468 L 610,470 L 710,472 L 810,468 L 910,472 L 1010,478
      L 1010,505 L 0,505 Z
    "/>

    <!-- Iceland -->
    <path d="M 450,68 L 464,64 L 474,68 L 472,78 L 460,82 L 448,78 Z"/>

    <!-- New Guinea -->
    <path d="M 876,260 L 908,254 L 930,260 L 936,270 L 922,278 L 900,278 L 878,272 Z"/>

  </g>

  <!-- Subtle dots at major cities / destinations (decorative) -->
  <g fill="rgba(168,216,240,0.4)" stroke="none">
    <circle cx="505" cy="252" r="1.5"/> <!-- 0°, 0° -->
  </g>
</svg>