<svg xmlns="http://www.w3.org/2000/svg" viewBox="0 0 1010 505" preserveAspectRatio="xMidYMid slice">

  <!-- Grid lines -->
  <g stroke="rgba(168,216,240,0.11)" stroke-width="0.5" fill="none">
    <line x1="84"  y1="0" x2="84"  y2="505"/>
    <line x1="168" y1="0" x2="168" y2="505"/>
    <line x1="252" y1="0" x2="252" y2="505"/>
    <line x1="337" y1="0" x2="337" y2="505"/>
    <line x1="421" y1="0" x2="421" y2="505"/>
    <line x1="505" y1="0" x2="505" y2="505"/>
    <line x1="589" y1="0" x2="589" y2="505"/>
    <line x1="674" y1="0" x2="674" y2="505"/>
    <line x1="758" y1="0" x2="758" y2="505"/>
    <line x1="842" y1="0" x2="842" y2="505"/>
    <line x1="926" y1="0" x2="926" y2="505"/>
    <line x1="0" y1="84"  x2="1010" y2="84"/>
    <line x1="0" y1="168" x2="1010" y2="168"/>
    <line x1="0" y1="337" x2="1010" y2="337"/>
    <line x1="0" y1="421" x2="1010" y2="421"/>
    <!-- Equator -->
    <line x1="0" y1="252" x2="1010" y2="252" stroke="rgba(168,216,240,0.20)" stroke-width="1"/>
    <!-- Tropics dashed -->
    <line x1="0" y1="188" x2="1010" y2="188" stroke="rgba(168,216,240,0.13)" stroke-width="0.7" stroke-dasharray="5,5"/>
    <line x1="0" y1="316" x2="1010" y2="316" stroke="rgba(168,216,240,0.13)" stroke-width="0.7" stroke-dasharray="5,5"/>
  </g>

  <!-- ── Continents ─────────────────────────────────────────────────────── -->
  <g fill="rgba(91,184,232,0.20)" stroke="rgba(168,216,240,0.58)" stroke-width="0.9"
     stroke-linejoin="round" stroke-linecap="round">

    <!-- ══ NORTH AMERICA + CENTRAL AMERICA ══
         Clockwise from NW Alaska. Gulf of Mexico is "filled in" for simplicity.
         Baja California peninsula loops south then back north. -->
    <path d="
      M 34,76
      L 42,72 L 56,62 L 65,53 L 78,53 L 90,56
      L 107,57 L 123,57 L 140,53 L 157,49 L 182,45
      L 210,43 L 240,43 L 268,44 L 282,46 L 294,46
      L 312,49 L 322,56 L 330,64 L 337,73
      L 344,80 L 349,93 L 350,107 L 354,121
      L 337,126 L 323,128 L 312,131 L 298,137
      L 293,143 L 293,154 L 281,162 L 278,168
      L 278,174 L 280,179 L 278,183
      L 274,177 L 270,172 L 261,171 L 252,171
      L 240,174 L 230,179 L 222,188 L 216,196
      L 213,204
      L 240,204 L 258,207 L 266,207 L 266,198 L 261,193
      L 272,211 L 268,218 L 265,224 L 280,228
      L 271,222 L 259,213 L 249,207 L 238,204
      L 216,204 L 210,199 L 207,193 L 207,186
      L 196,188 L 188,183 L 183,177 L 180,171
      L 178,165 L 177,159 L 175,155
      L 168,148 L 162,142 L 159,135
      L 157,127 L 157,118 L 157,115
      L 154,109 L 146,104 L 140,101
      L 132,95 L 129,92 L 124,91 L 118,88
      L 107,87 L 98,87 L 88,85 L 79,87
      L 74,91 L 68,94 L 62,96 L 52,99 L 44,96
      L 42,90 L 42,82 L 42,73
      Z
    "/>

    <!-- ══ GREENLAND ══ -->
    <path d="
      M 295,15 L 312,12 L 338,11 L 363,13 L 388,19
      L 400,28 L 406,37 L 404,48 L 396,56
      L 380,62 L 362,67 L 344,67 L 328,62
      L 314,54 L 305,44 L 297,33 L 293,22 Z
    "/>

    <!-- ══ SOUTH AMERICA ══
         N coast (Caribbean) east, then E coast south to Cape Horn, then W coast north. -->
    <path d="
      M 280,228
      L 286,228 L 296,226 L 312,224 L 328,222
      L 348,225 L 368,230 L 385,237 L 397,246
      L 407,254 L 407,264 L 404,275 L 400,285
      L 395,298 L 390,311 L 385,326 L 378,339
      L 370,347 L 360,353 L 350,358 L 340,364
      L 332,370 L 327,378 L 323,388 L 318,394
      L 311,398 L 305,397 L 298,390
      L 293,381 L 290,370 L 287,358 L 285,346
      L 279,332 L 275,318 L 272,305 L 272,292
      L 274,278 L 272,265 L 272,253
      L 278,242 L 282,233
      Z
    "/>

    <!-- ══ EUROPE — Mainland ══ -->
    <path d="
      M 472,149 L 474,142 L 472,135 L 476,128
      L 480,123 L 484,118 L 484,112 L 487,107
      L 488,102 L 492,99 L 497,97 L 501,96
      L 504,100 L 500,108 L 499,116 L 502,122
      L 507,126 L 513,128 L 519,127 L 525,124
      L 530,118 L 534,113 L 538,108 L 543,103
      L 548,100 L 553,97 L 558,93 L 561,86
      L 564,80 L 566,72 L 568,65 L 571,57
      L 577,55 L 584,55 L 591,62 L 589,70
      L 585,78 L 580,85 L 576,93 L 573,100
      L 576,108 L 581,116 L 584,124 L 586,133
      L 584,141 L 580,148 L 577,153 L 573,157
      L 566,159 L 558,160 L 552,157 L 546,153
      L 540,152 L 533,155 L 528,159 L 521,159
      L 513,156 L 506,154 L 498,153 L 490,152
      L 483,152 L 477,152 Z
    "/>

    <!-- Scandinavian peninsula -->
    <path d="
      M 497,97 L 498,90 L 498,84 L 500,78
      L 502,71 L 505,65 L 508,59 L 511,53
      L 516,50 L 521,49 L 527,51 L 532,55
      L 535,62 L 536,70 L 536,78 L 534,85
      L 531,92 L 528,98 L 522,102 L 516,104
      L 508,104 L 501,102 Z
    "/>

    <!-- Great Britain -->
    <path d="
      M 477,118 L 480,112 L 483,107 L 486,103
      L 484,99 L 480,97 L 476,100 L 472,107
      L 470,114 L 471,120 L 474,124 L 477,122 Z
    "/>

    <!-- Ireland -->
    <path d="M 468,113 L 472,108 L 471,103 L 467,104 L 464,110 L 465,116 Z"/>

    <!-- Italian boot — separate path -->
    <path d="
      M 534,136 L 536,130 L 539,126 L 542,123
      L 545,121 L 548,120 L 550,122 L 552,126
      L 553,130 L 554,136 L 553,141 L 551,146
      L 550,150 L 550,155 L 549,158 L 548,161
      L 543,163 L 540,162 L 538,158 L 536,153
      L 535,148 L 533,145
      L 533,152 L 536,157 L 540,162
      L 543,163 L 545,161 L 549,158 L 552,154
      L 554,150 L 556,145 L 557,140 L 556,135
      L 553,129 L 549,124 L 545,120 L 540,119
      L 535,122 L 532,127 L 530,133 L 530,140
      L 531,147 L 534,152 L 536,155 L 533,153
      L 530,148 L 529,141 Z
    "/>

    <!-- ══ AFRICA ══ -->
    <path d="
      M 472,149 L 477,152 L 484,153 L 490,152
      L 498,152 L 505,154 L 508,156 L 512,156
      L 520,154 L 528,152 L 535,150 L 541,148
      L 548,148 L 556,148 L 564,149 L 572,150
      L 580,152 L 590,155 L 600,159 L 608,163
      L 615,168 L 620,175 L 624,183 L 627,192
      L 631,201 L 634,212 L 635,222 L 632,232
      L 627,240 L 621,247 L 617,256 L 616,266
      L 617,278 L 616,290 L 612,302 L 607,315
      L 601,328 L 593,340 L 585,350 L 576,359
      L 566,366 L 558,369 L 550,368 L 543,363
      L 536,355 L 530,344 L 524,332 L 519,319
      L 515,306 L 512,293 L 511,280 L 511,268
      L 511,256 L 510,244 L 508,234 L 505,224
      L 502,214 L 498,206 L 492,199 L 484,193
      L 477,188 L 472,181 L 468,172 L 467,163
      L 469,156 Z
    "/>

    <!-- Madagascar -->
    <path d="
      M 631,290 L 637,284 L 642,285 L 647,292
      L 650,303 L 650,318 L 647,330 L 642,339
      L 636,342 L 631,338 L 627,328 L 626,315
      L 626,302 Z
    "/>

    <!-- ══ ASIA — large mainland block ══ -->
    <path d="
      M 591,62 L 601,58 L 614,54 L 630,51
      L 648,49 L 668,47 L 690,45 L 714,44
      L 740,43 L 770,43 L 800,43 L 826,44
      L 852,45 L 876,47 L 898,50 L 918,54
      L 938,59 L 956,65 L 972,72 L 984,80
      L 992,90 L 994,101 L 990,112 L 984,121
      L 977,130 L 969,139 L 958,148 L 948,156
      L 937,164 L 926,171 L 916,178 L 907,186
      L 899,193 L 892,201 L 884,207 L 875,213
      L 864,217 L 852,219 L 840,218 L 829,214
      L 820,209 L 812,203 L 804,197 L 796,191
      L 786,187 L 775,184 L 764,183 L 753,184
      L 743,187 L 733,191 L 724,197 L 716,204
      L 710,212 L 706,221 L 704,231 L 702,241
      L 698,249 L 691,255 L 682,257 L 674,254
      L 666,248 L 658,240 L 651,231 L 645,221
      L 640,211 L 636,200 L 632,190 L 630,179
      L 626,169 L 619,161 L 612,155
      L 607,153 L 600,152 L 594,152 L 588,153
      L 582,156 L 576,160 L 568,161 L 561,159
      L 553,157 L 546,154 L 541,152 L 535,150
      L 528,152 L 522,154 L 515,155 L 508,156
      L 503,154 L 499,149
      L 500,140 L 502,132 L 505,125 L 510,118
      L 514,111 L 519,105 L 524,101 L 529,99
      L 531,93 L 533,87 L 536,80 L 538,73
      L 540,66 L 543,60 L 548,56 L 555,54
      L 563,54 L 571,56 L 578,57 L 585,56
      Z
    "/>

    <!-- ══ ARABIAN PENINSULA ══ -->
    <path d="
      M 586,153 L 596,154 L 606,157 L 614,162
      L 620,169 L 625,177 L 629,186 L 632,196
      L 634,207 L 636,218 L 637,228 L 635,235
      L 630,240 L 625,240 L 620,233 L 618,224
      L 616,215 L 617,207 L 618,199 L 620,192
      L 621,185 L 621,179
      L 647,216 L 650,207 L 654,199 L 658,191
      L 659,182 L 657,174 L 653,167 L 647,161
      L 639,157 L 631,153 L 621,150 L 611,149
      L 599,150 L 590,152 Z
    "/>

    <!-- ══ INDIAN SUBCONTINENT ══ -->
    <path d="
      M 670,199 L 680,193 L 690,188 L 700,185
      L 710,185 L 718,188 L 724,195 L 728,204
      L 730,214 L 730,225 L 727,236 L 723,246
      L 717,256 L 708,264 L 698,270 L 688,273
      L 678,271 L 669,265 L 661,256 L 655,245
      L 651,233 L 650,221 L 652,210 L 658,201
      Z
    "/>

    <!-- Sri Lanka -->
    <path d="M 700,275 L 706,272 L 711,277 L 712,285 L 708,290 L 702,287 L 699,281 Z"/>

    <!-- ══ INDOCHINA + SE ASIA ══ -->
    <path d="
      M 800,191 L 806,197 L 812,203 L 818,209
      L 822,218 L 824,228 L 822,238 L 818,247
      L 812,255 L 805,262 L 797,267 L 789,269
      L 782,266 L 778,258 L 775,249 L 775,239
      L 776,228 L 779,218 L 783,209 L 789,202
      L 795,196 Z
    "/>

    <!-- Malay Peninsula -->
    <path d="
      M 789,267 L 793,267 L 798,270 L 801,278
      L 802,288 L 801,299 L 798,308 L 794,312
      L 789,311 L 785,303 L 783,292 L 783,281
      L 784,271 Z
    "/>

    <!-- Sumatra -->
    <path d="
      M 762,265 L 775,258 L 789,256 L 803,258
      L 812,264 L 815,274 L 812,284 L 803,292
      L 791,299 L 778,300 L 767,295 L 759,285
      L 756,273 Z
    "/>

    <!-- Java -->
    <path d="
      M 790,307 L 806,302 L 822,299 L 838,299
      L 852,304 L 856,311 L 850,318 L 834,321
      L 814,320 L 796,316 L 785,312 Z
    "/>

    <!-- Borneo -->
    <path d="
      M 820,254 L 834,248 L 850,247 L 863,250
      L 872,257 L 878,267 L 878,279 L 875,292
      L 868,303 L 857,310 L 843,314 L 830,311
      L 819,303 L 813,291 L 812,278 L 815,265
      Z
    "/>

    <!-- New Guinea -->
    <path d="
      M 872,254 L 886,250 L 902,248 L 918,250
      L 932,255 L 940,263 L 940,273 L 934,281
      L 920,285 L 904,284 L 888,278 L 877,269
      Z
    "/>

    <!-- Philippines (simplified) -->
    <path d="
      M 853,193 L 862,188 L 872,190 L 878,198
      L 878,210 L 875,220 L 866,225 L 857,222
      L 852,213 L 851,202 Z
    "/>

    <!-- Korean Peninsula -->
    <path d="
      M 852,143 L 861,139 L 870,140 L 876,147
      L 878,155 L 876,164 L 870,170 L 862,173
      L 854,170 L 849,162 L 849,153 Z
    "/>

    <!-- Japan — Honshu -->
    <path d="
      M 876,121 L 886,116 L 896,115 L 904,118
      L 910,124 L 912,132 L 908,140 L 900,146
      L 890,148 L 881,145 L 876,138 L 875,129
      Z
    "/>

    <!-- Japan — Kyushu -->
    <path d="M 882,150 L 890,147 L 898,149 L 902,156 L 899,163 L 891,166 L 884,162 L 881,156 Z"/>

    <!-- Taiwan -->
    <path d="M 862,187 L 869,183 L 875,188 L 875,197 L 869,202 L 862,199 L 859,193 Z"/>

    <!-- Iceland -->
    <path d="M 446,64 L 456,60 L 468,60 L 476,65 L 476,73 L 468,79 L 456,81 L 447,77 L 443,71 Z"/>

    <!-- ══ AUSTRALIA ══ — with Cape York, Gulf of Carpentaria -->
    <path d="
      M 856,278 L 866,274 L 876,272 L 888,271
      L 897,270 L 904,271 L 908,267 L 912,260
      L 918,256 L 926,255 L 932,257 L 936,263
      L 936,271 L 934,280 L 930,284
      L 937,282 L 942,286 L 944,295 L 942,306
      L 937,316 L 930,320 L 936,325 L 941,333
      L 942,344 L 940,355 L 936,365 L 929,374
      L 920,381 L 909,385 L 896,386 L 883,384
      L 870,378 L 858,369 L 848,358 L 840,345
      L 834,330 L 830,315 L 828,300 L 828,286
      L 832,278 L 840,274 L 848,274 Z
    "/>

    <!-- New Zealand — South Island -->
    <path d="M 956,364 L 964,356 L 972,358 L 976,368 L 974,380 L 967,387 L 958,383 L 953,374 Z"/>

    <!-- New Zealand — North Island -->
    <path d="M 964,347 L 972,341 L 978,345 L 980,354 L 975,360 L 965,360 L 960,354 Z"/>

    <!-- ══ ANTARCTICA ══ -->
    <path d="
      M 0,476 L 60,470 L 120,466 L 180,465 L 240,466
      L 300,468 L 370,465 L 440,466 L 505,463
      L 570,466 L 640,465 L 710,468 L 780,466
      L 840,468 L 900,470 L 960,472 L 1010,476
      L 1010,505 L 0,505 Z
    "/>

    <!-- Cuba -->
    <path d="M 250,213 L 264,210 L 276,211 L 282,216 L 278,221 L 264,223 L 252,220 Z"/>

    <!-- Hispaniola -->
    <path d="M 285,217 L 294,214 L 301,217 L 302,223 L 295,226 L 286,223 Z"/>

  </g>

  <!-- Location dot — equator/prime meridian crosshair -->
  <circle cx="505" cy="252" r="1.5" fill="rgba(168,216,240,0.30)"/>

</svg>
